<?xml version="1.0" encoding="UTF-8" standalone="no"?>
<svg xmlns:dc="http://purl.org/dc/elements/1.1/" xmlns:cc="http://creativecommons.org/ns#" xmlns:rdf="http://www.w3.org/1999/02/22-rdf-syntax-ns#" xmlns:svg="http://www.w3.org/2000/svg" xmlns="http://www.w3.org/2000/svg" viewBox="0 0 14.444627 19.682611" height="16.402176" width="12.037189" id="svg2" version="1.1">
  <metadata id="metadata8">
    <rdf:RDF>
      <cc:Work rdf:about="">
        <dc:format>image/svg+xml</dc:format>
        <dc:type rdf:resource="http://purl.org/dc/dcmitype/StillImage" />
        <dc:title></dc:title>
      </cc:Work>
    </rdf:RDF>
  </metadata>
  <defs id="defs6" />
  <path id="path817" d="M 5.8065833,3.6642934e-4 C 5.4026433,-0.00848357 5.3904133,0.13997643 5.5928933,0.77318643 C 5.6919833,1.0830864 5.7925133,1.5053364 5.8162733,1.7115264 C 5.8585133,2.0781064 5.8715633,5.0943064 5.8310733,5.1347964 C 5.8198133,5.1460564 4.9223233,5.2669264 3.8366433,5.4035264 L 1.8626733,5.6519364 L 1.3805133,5.4779464 C 0.76397326,5.2555464 0.23854326,5.1817664 0.09862326,5.2978964 C -0.07539674,5.4423164 -0.01853674,5.6877964 0.26454326,6.0148664 C 0.69639326,6.5138364 0.80019326,6.9018164 1.0658933,9.0099464 C 1.1978533,10.056946 1.3537733,11.043456 1.4124033,11.202326 C 1.6550633,11.859766 2.0157233,12.035536 2.2692033,11.619756 C 2.3442833,11.496596 2.4151033,11.368256 2.4265133,11.334466 C 2.4442133,11.282056 4.9438833,11.029136 5.5348933,11.019986 L 5.7352633,11.016886 L 5.6967733,13.514466 C 5.6551133,16.226236 5.7282233,19.025876 5.8515333,19.443926 C 5.9460933,19.764536 6.0960033,19.762106 6.2859133,19.436926 C 6.6768233,18.767596 6.8919233,16.734626 7.0090833,12.601556 L 7.0569933,10.913536 L 9.6969433,10.734296 C 12.706823,10.529906 12.755433,10.518096 12.313203,10.101016 L 12.067353,9.8691564 L 12.778543,8.4156964 C 13.428843,7.0865164 13.532043,6.9175364 13.984403,6.4413164 C 14.396103,6.0079064 14.472013,5.8925364 14.437093,5.7534064 C 14.377673,5.5166864 13.362023,4.6915564 12.892113,4.4982864 C 12.434593,4.3101164 12.075443,4.2932264 11.590173,4.4373264 C 10.954203,4.6261964 7.2848233,5.1011564 7.1904833,5.0068264 C 7.1717333,4.9880764 7.1866533,4.3405964 7.2237133,3.5680264 C 7.2814933,2.3637064 7.3162033,2.0869064 7.4668833,1.6272864 C 7.6825733,0.96937643 7.6857633,0.81541643 7.4876033,0.62946643 C 7.2223333,0.38053643 6.4306533,0.05155643 6.0041333,0.01287643 C 5.9299133,0.00614643 5.8642933,0.00162643 5.8065833,3.6642934e-4 Z M 10.912353,5.4852064 C 11.321013,5.4886464 11.600823,5.5097964 11.642113,5.5506064 C 11.858543,5.7644964 11.794893,6.1998364 11.308253,7.8327464 C 11.045293,8.7151064 10.818363,9.4484564 10.803893,9.4623564 C 10.789423,9.4762664 10.157433,9.5562864 9.3995433,9.6402564 C 8.6416633,9.7242364 7.8268533,9.8141964 7.5889333,9.8402264 C 7.3510133,9.8662664 7.1433733,9.8746764 7.1275033,9.8587964 C 7.1000033,9.8313064 7.1643933,5.7650164 7.1929033,5.7287764 C 7.2004233,5.7192264 7.7000133,5.6645764 8.3030833,5.6073964 C 9.1923133,5.5230964 10.231263,5.4794864 10.912353,5.4852064 Z M 5.7479133,5.8681864 L 5.7697133,6.9785064 C 5.7817333,7.5891364 5.7710433,8.5258764 5.7458933,9.0602764 L 5.7001433,10.031986 L 4.5872633,10.113806 C 3.9751433,10.158796 3.2410233,10.213686 2.9560333,10.235856 L 2.4379533,10.276226 L 2.2300433,8.4590264 C 2.0903733,7.2378564 2.0457033,6.6279964 2.0937233,6.5996964 C 2.2610633,6.5011064 3.1503133,6.3070064 4.4043833,6.0952064 Z" style="fill:#000000;stroke-width:0.06889871" />
</svg>
